<svg width="1152" height="641" viewBox="0 0 1152 641" fill="none" xmlns="http://www.w3.org/2000/svg">
<rect width="1152" height="641" fill="#00B7FF"/>
<path d="M0 447.806C0 390.851 66.7722 360.09 110.062 397.103L135.629 418.963C163.897 443.132 207.722 427.131 213.767 390.435V390.435C218.043 364.485 242.498 346.879 268.464 351.057L281.515 353.158C298.683 355.92 313.857 365.877 323.225 380.526L349.302 421.304C365.574 446.75 402.282 448.03 420.288 423.78V423.78C441.059 395.805 484.71 402.72 495.819 435.745L520.29 508.496C523.312 517.48 529.699 524.942 538.11 529.314L569.622 545.692C601.422 562.219 584.907 610.554 549.643 604.167L519.863 598.773C495.369 594.336 481.351 625.717 501 641V641H338H0V447.806Z" fill="black" fill-opacity="0.15"/>
<path d="M1152 150.602C1152 233.108 1062.02 284.093 991.244 241.691L936.323 208.788C901.815 188.114 857.167 206.994 847.96 246.153V246.153C841.073 275.445 813.373 294.961 783.472 291.59L748.642 287.663C724.843 284.979 702.827 273.749 686.682 256.059L630.346 194.331C616.638 179.311 593.282 178.439 578.493 192.396V192.396C551.578 217.796 508.338 191.477 518.538 155.902L534.61 99.842C541.37 76.2648 530.863 51.1542 509.326 39.4171L437 0H669.625H1152V150.602Z" fill="black" fill-opacity="0.15"/>
<circle cx="560.5" cy="485.5" r="29.5" fill="black" fill-opacity="0.15"/>
<circle cx="921.5" cy="291.5" r="29.5" fill="black" fill-opacity="0.15"/>
<circle cx="436.5" cy="139.5" r="29.5" fill="black" fill-opacity="0.15"/>
</svg>
