<svg width="952" height="153" viewBox="0 0 952 153" fill="none" xmlns="http://www.w3.org/2000/svg">
<path d="M834.818 153C741.067 102.759 638.901 70.1275 533.384 56.7231L386 38L352.3 31.8405C236.4 10.6569 118.821 0 1.00018 0V0V153H693H834.818V153Z" fill="#00B7FF" fill-opacity="0.15"/>
<path d="M699.818 153C621.433 102.892 533.401 69.7976 441.419 55.8588L323.568 38L294.329 31.6251C197.907 10.6025 99.5053 0 0.818109 0V0V153H580.93H699.818V153Z" fill="#00B7FF" fill-opacity="0.15"/>
<path d="M951.818 153C844.716 102.676 730.063 70.3163 612.454 57.2167L439.925 38L402.235 31.9602C269.488 10.687 135.26 0 0.818355 0V0V153H790.07H951.818V153Z" fill="#00B7FF" fill-opacity="0.15"/>
</svg>
